<svg width="384" height="167" viewBox="0 0 384 167" fill="none" xmlns="http://www.w3.org/2000/svg">
<rect x="2.5" y="2.5" width="379" height="162" rx="42.5" fill="white" stroke="black" stroke-width="5"/>
<path d="M100.966 125.405V127H69.9461V125.405L79.7911 123.095V52.2L69.9461 49.945V48.35H100.966V49.945L91.1211 52.2V123.095L100.966 125.405ZM175.824 84.595C175.824 81.0017 174.504 78.05 171.864 75.74C169.224 73.3933 165.961 72.22 162.074 72.22C158.481 72.22 155.419 73.1917 152.889 75.135C150.359 77.0417 148.434 79.8467 147.114 83.55C145.794 87.2533 145.134 91.8 145.134 97.19C145.134 102.433 145.776 106.797 147.059 110.28C148.343 113.727 150.268 116.312 152.834 118.035C155.401 119.722 158.628 120.565 162.514 120.565C165.631 120.565 168.509 120.033 171.149 118.97C173.826 117.907 176.393 116.073 178.849 113.47L179.674 114.57C177.364 117.173 175.219 119.355 173.239 121.115C171.259 122.838 169.389 124.213 167.629 125.24C165.869 126.267 164.183 127 162.569 127.44C160.956 127.88 159.398 128.1 157.894 128.1C153.091 128.1 148.929 127 145.409 124.8C141.889 122.563 139.158 119.465 137.214 115.505C135.308 111.508 134.354 106.87 134.354 101.59C134.354 96.53 135.088 92.02 136.554 88.06C138.021 84.1 140.093 80.745 142.769 77.995C145.446 75.245 148.618 73.155 152.284 71.725C155.951 70.295 159.984 69.58 164.384 69.58C166.548 69.58 168.729 69.745 170.929 70.075C173.129 70.3683 175.274 70.845 177.364 71.505C179.491 72.165 181.434 73.0083 183.194 74.035L175.824 75.575V54.675C175.384 54.4917 174.651 54.1617 173.624 53.685C172.598 53.2083 171.479 52.695 170.269 52.145C169.059 51.595 167.923 51.0817 166.859 50.605V49.615L186.549 45.38H186.714L185.944 53.905V121.445C186.274 121.592 186.806 121.812 187.539 122.105C188.273 122.398 189.079 122.728 189.959 123.095C190.839 123.425 191.701 123.773 192.544 124.14C193.388 124.47 194.103 124.745 194.689 124.965V126.175L176.099 128.43H175.824V120.73V84.595ZM226.779 125.68C230.336 125.68 233.324 124.672 235.744 122.655C238.164 120.638 239.979 117.65 241.189 113.69C242.436 109.693 243.059 104.762 243.059 98.895C243.059 92.9917 242.454 88.06 241.244 84.1C240.034 80.1033 238.238 77.0967 235.854 75.08C233.508 73.0267 230.593 72 227.109 72C223.553 72 220.564 73.0083 218.144 75.025C215.724 77.0417 213.891 80.0483 212.644 84.045C211.434 88.005 210.829 92.9183 210.829 98.785C210.829 104.652 211.434 109.583 212.644 113.58C213.854 117.577 215.633 120.602 217.979 122.655C220.363 124.672 223.296 125.68 226.779 125.68ZM226.669 128.1C221.683 128.1 217.136 126.853 213.029 124.36C208.959 121.867 205.714 118.42 203.294 114.02C200.874 109.583 199.664 104.505 199.664 98.785C199.664 93.065 200.893 88.005 203.349 83.605C205.843 79.205 209.161 75.7767 213.304 73.32C217.484 70.8267 222.123 69.58 227.219 69.58C232.316 69.58 236.899 70.8267 240.969 73.32C245.039 75.8133 248.266 79.26 250.649 83.66C253.033 88.06 254.224 93.1383 254.224 98.895C254.224 104.615 252.959 109.675 250.429 114.075C247.936 118.475 244.599 121.922 240.419 124.415C236.239 126.872 231.656 128.1 226.669 128.1ZM269.587 112.755C271.861 112.755 273.712 113.488 275.142 114.955C276.609 116.422 277.342 118.237 277.342 120.4C277.342 122.527 276.609 124.342 275.142 125.845C273.712 127.312 271.861 128.045 269.587 128.045C267.351 128.045 265.499 127.312 264.032 125.845C262.566 124.342 261.832 122.527 261.832 120.4C261.832 118.237 262.566 116.422 264.032 114.955C265.536 113.488 267.387 112.755 269.587 112.755ZM295.261 112.755C297.535 112.755 299.386 113.488 300.816 114.955C302.283 116.422 303.016 118.237 303.016 120.4C303.016 122.527 302.283 124.342 300.816 125.845C299.386 127.312 297.535 128.045 295.261 128.045C293.025 128.045 291.173 127.312 289.706 125.845C288.24 124.342 287.506 122.527 287.506 120.4C287.506 118.237 288.24 116.422 289.706 114.955C291.21 113.488 293.061 112.755 295.261 112.755ZM320.935 112.755C323.208 112.755 325.06 113.488 326.49 114.955C327.957 116.422 328.69 118.237 328.69 120.4C328.69 122.527 327.957 124.342 326.49 125.845C325.06 127.312 323.208 128.045 320.935 128.045C318.698 128.045 316.847 127.312 315.38 125.845C313.913 124.342 313.18 122.527 313.18 120.4C313.18 118.237 313.913 116.422 315.38 114.955C316.883 113.488 318.735 112.755 320.935 112.755Z" fill="black"/>
</svg>
